<svg xmlns="http://www.w3.org/2000/svg" width="70" height="24" viewBox="0 0 70 24"><g><g><path fill="#0a9beb" d="M67.327 24H2.673C1.14 24 0 22.864 0 21.333V2.667C0 1.137 1.14 0 2.673 0h64.654C68.796 0 70 1.2 70 2.667v18.666A2.678 2.678 0 0 1 67.327 24zM11.995 13.067a4.527 4.527 0 0 0 4.528-4.534A4.527 4.527 0 0 0 11.995 4a4.527 4.527 0 0 0-4.528 4.533 4.527 4.527 0 0 0 4.528 4.534zm.01-6.4c1.016 0 1.872.853 1.872 1.866 0 1.014-.856 1.867-1.872 1.867s-1.872-.853-1.872-1.867c0-1.013.856-1.866 1.872-1.866zm3.888 5.493c-.16 0-.32.053-.48.107-.16.106-.373.213-.533.32-.96.533-1.813 1.013-2.88 1.013s-1.92-.48-2.88-1.013c-.16-.107-.373-.214-.533-.32-.16-.054-.32-.107-.48-.107-.64 0-1.174.533-1.174 1.173 0 .587.427 1.12.854 1.387a7.936 7.936 0 0 0 1.92.907c.16.053.32.106.48.106l-2.08 2.08c-.48.48-.48 1.28 0 1.814.48.48 1.333.48 1.813 0L12 17.44l2.08 2.187c.213.213.533.373.907.373.373 0 .64-.107.906-.373.48-.48.48-1.28 0-1.814l-2.08-2.026c.16-.054.32-.107.48-.107a9.243 9.243 0 0 0 2.08-.96c.48-.32.747-.8.747-1.333-.053-.694-.587-1.227-1.227-1.227z"/></g></g></svg>