<svg xmlns="http://www.w3.org/2000/svg" width="33" height="42" viewBox="0 0 33 42"><g><g><g><path fill="#fff" d="M23.244 0H1.477C.871 0 .38.491.38 1.444V41.25c0 .259.491.75 1.097.75h30.056c.606 0 1.097-.491 1.097-.75V9.733c0-.522-.07-.69-.193-.813L23.71.193A.663.663 0 0 0 23.244 0z"/></g><g><path fill="#efeee7" d="M23.63.11v8.887h8.887z"/></g><g><path fill="#cc4b4c" d="M16.369 8.945c-1.057-1.094-.144-2.387-.072-2.412m3.32 10.505c-1.599.375-3.3.906-4.865 1.515a53.52 53.52 0 0 0 2.002-5.673c.841 1.513 1.851 2.982 2.862 4.158zm4.1.696c.665 0 .787.1.879.148-.018.054-.06.154-.172.311-.231.323-.73.331-.904.331-.398 0-.547-.238-1.156-.708.502-.065.976-.081 1.354-.082zm-13.57 5.98c-.349-.267-.329-.448-.321-.516.047-.416.698-1.153 2.294-2.05-1.21 2.235-1.86 2.531-1.972 2.567zm2.073-.3c.56-.787 1.16-1.859 1.787-3.189a35.936 35.936 0 0 1 6.621-2.116c1.184 1.137 2.246 1.713 3.158 1.713.672 0 1.248-.309 1.665-.893.435-.608.533-1.153.293-1.62-.29-.564-1.002-.838-2.177-.838-.689 0-1.535.091-2.518.269-1.373-1.457-2.805-3.584-3.816-5.672 1.003-4.221.5-4.82.28-5.101-.236-.3-.568-.787-.946-.787-.16 0-.591.072-.762.129-.433.144-.665.477-.85.911-.53 1.24.197 3.354.945 4.983-.64 2.544-1.713 5.59-2.84 8.062-2.843 1.302-4.353 2.58-4.49 3.801-.05.444.056 1.096.837 1.682.213.16.464.244.725.244.656 0 1.32-.502 2.088-1.579z"/></g><g><path fill="#cc4b4c" d="M31.533 42H1.477A1.097 1.097 0 0 1 .38 40.903V29.25h32.25v11.653c0 .606-.491 1.097-1.097 1.097z"/></g><g><g><path fill="#fff" d="M8.54 33.124h.923c.314 0 .568.05.76.149.19.1.339.222.445.37.106.147.176.302.21.463a2.32 2.32 0 0 1-.062 1.203c-.074.21-.173.372-.296.488-.123.117-.258.201-.405.253a1.336 1.336 0 0 1-.446.077H8.54z"/></g><g><path fill="#fff" d="M16.011 38.845h-1.22v-5.722h.717c.589 0 1.067.077 1.436.231.369.154.661.355.877.605.215.25.36.528.435.836.075.307.113.618.113.933 0 1.011-.184 1.784-.553 2.317-.37.534-.971.8-1.805.8zm3.414-4.405a3.303 3.303 0 0 0-.713-1.143 3.48 3.48 0 0 0-1.2-.805c-.481-.2-1.04-.302-1.676-.302H13.56v7.557h2.86c.097 0 .244-.012.442-.035a3.07 3.07 0 0 0 .656-.164c.239-.086.487-.214.743-.385.257-.17.487-.404.692-.702.206-.298.375-.667.508-1.108.134-.441.2-.973.2-1.595 0-.451-.078-.89-.236-1.318z"/></g><g><path fill="#fff" d="M22.701 33.123v2.379h3.158v.84h-3.158v3.405H21.45V32.19h4.726v.933z"/></g></g></g></g></svg>