<svg xmlns="http://www.w3.org/2000/svg" width="33" height="42" viewBox="0 0 33 42"><g><g><g><path fill="#fff" d="M23.244 0H1.477C.871 0 .38.491.38 1.444V41.25c0 .259.491.75 1.097.75h30.056c.606 0 1.097-.491 1.097-.75V9.733c0-.522-.07-.69-.193-.813L23.71.193A.663.663 0 0 0 23.244 0z"/></g><g><path fill="#efeee7" d="M23.63.11v8.887h8.887z"/></g><g><path fill="#8697cb" d="M9.38 9.75h-4.5a.75.75 0 0 1 0-1.5h4.5a.75.75 0 0 1 0 1.5z"/></g><g><path fill="#8697cb" d="M11.63 13.5H4.88a.75.75 0 0 1 0-1.5h6.75a.75.75 0 0 1 0 1.5z"/></g><g><path fill="#8697cb" d="M14.63 13.5a.789.789 0 0 1-.532-.217.789.789 0 0 1-.218-.532c0-.195.083-.39.217-.533.278-.277.788-.277 1.066 0a.789.789 0 0 1 .217.533c0 .195-.083.39-.218.532a.789.789 0 0 1-.532.218z"/></g><g><path fill="#8697cb" d="M23.63 13.5h-6a.75.75 0 0 1 0-1.5h6a.75.75 0 0 1 0 1.5z"/></g><g><path fill="#8697cb" d="M4.88 24.75a.789.789 0 0 1-.532-.217.789.789 0 0 1-.218-.532c0-.195.083-.39.217-.533.278-.277.788-.277 1.065 0 .135.143.218.33.218.533 0 .195-.083.39-.217.532a.789.789 0 0 1-.533.218z"/></g><g><path fill="#8697cb" d="M13.88 24.75h-6a.75.75 0 0 1 0-1.5h6a.75.75 0 0 1 0 1.5z"/></g><g><path fill="#8697cb" d="M28.13 13.5h-1.5a.75.75 0 0 1 0-1.5h1.5a.75.75 0 0 1 0 1.5z"/></g><g><path fill="#8697cb" d="M21.38 17.25H4.88a.75.75 0 0 1 0-1.5h16.5a.75.75 0 0 1 0 1.5z"/></g><g><path fill="#8697cb" d="M28.13 17.25h-4.5a.75.75 0 0 1 0-1.5h4.5a.75.75 0 0 1 0 1.5z"/></g><g><path fill="#8697cb" d="M7.88 21h-3a.75.75 0 0 1 0-1.5h3a.75.75 0 0 1 0 1.5z"/></g><g><path fill="#8697cb" d="M18.38 21h-7.5a.75.75 0 0 1 0-1.5h7.5a.75.75 0 0 1 0 1.5z"/></g><g><path fill="#8697cb" d="M28.13 21h-6.75a.75.75 0 0 1 0-1.5h6.75a.75.75 0 0 1 0 1.5z"/></g><g><path fill="#0096e6" d="M31.533 42H1.477A1.097 1.097 0 0 1 .38 40.903V29.25h32.25v11.653c0 .606-.491 1.097-1.097 1.097z"/></g><g><g><path fill="#fff" d="M9.47 38.845H8.253v-5.722h.717c.587 0 1.065.077 1.434.231.368.154.66.355.875.605.216.25.36.528.436.836.075.307.112.618.112.933 0 1.011-.184 1.784-.553 2.317-.368.534-.97.8-1.802.8zm3.414-4.405a3.303 3.303 0 0 0-.712-1.143 3.48 3.48 0 0 0-1.2-.805c-.482-.2-1.04-.302-1.677-.302H7.02v7.557h2.86c.096 0 .243-.012.44-.035a3.07 3.07 0 0 0 .657-.164c.24-.086.487-.214.743-.385.257-.17.487-.404.692-.702.206-.298.375-.667.508-1.108.134-.441.2-.973.2-1.595 0-.451-.078-.89-.236-1.318z"/></g><g><path fill="#fff" d="M16.724 38.638a1.644 1.644 0 0 1-.595-.503c-.175-.23-.312-.525-.41-.887a5.299 5.299 0 0 1-.16-1.313c.007-.526.063-.97.165-1.332.102-.363.243-.658.425-.888.18-.228.385-.39.615-.486a1.85 1.85 0 0 1 .723-.144c.247 0 .48.051.703.154.222.103.42.27.594.503.175.232.312.528.41.887.1.358.153.794.16 1.307-.008.527-.063.972-.165 1.338-.102.366-.244.662-.425.888-.18.225-.386.387-.615.486-.23.1-.47.149-.723.149-.246 0-.48-.053-.702-.16zm3.64-4.379a3.456 3.456 0 0 0-.666-1.204 2.85 2.85 0 0 0-.995-.734 3.043 3.043 0 0 0-1.245-.251c-.451 0-.866.083-1.246.251a2.85 2.85 0 0 0-.995.734 3.419 3.419 0 0 0-.666 1.204c-.16.482-.241 1.041-.241 1.677 0 .635.08 1.196.24 1.681.161.485.384.888.667 1.21.284.322.615.564.995.728.38.164.795.246 1.246.246.45 0 .866-.082 1.246-.246a2.79 2.79 0 0 0 .994-.728c.283-.321.506-.725.667-1.21.16-.485.24-1.045.24-1.681 0-.636-.08-1.195-.24-1.677z"/></g><g><path fill="#fff" d="M27.46 38.981c-.281.273-.6.479-.954.615a3.16 3.16 0 0 1-1.148.205c-.452 0-.867-.082-1.246-.246a2.79 2.79 0 0 1-.995-.728 3.436 3.436 0 0 1-.666-1.21c-.16-.485-.241-1.046-.241-1.681 0-.636.08-1.195.24-1.677.161-.482.383-.883.667-1.204a2.835 2.835 0 0 1 1-.734 3.052 3.052 0 0 1 1.24-.251c.411 0 .793.068 1.149.205.355.137.673.342.953.615l-.851.759a1.554 1.554 0 0 0-1.22-.564 1.85 1.85 0 0 0-.723.143c-.23.096-.434.258-.615.487-.182.23-.323.524-.425.887-.102.363-.158.806-.165 1.333.007.513.06.95.16 1.312.098.362.235.658.41.887.174.23.372.396.594.503.222.106.456.159.703.159.247 0 .477-.045.692-.134.216-.088.412-.232.59-.43z"/></g></g></g></g></svg>