<svg xmlns="http://www.w3.org/2000/svg" width="61" height="62" viewBox="0 0 61 62"><defs><clipPath id="gvena"><path fill="#fff" d="M56.534 21.933c-2.89 2.994-6.94 4.207-10.77 3.62l-3.717 3.85a2.35 2.35 0 0 1-3.029.29 32.333 32.333 0 0 1-4.145-3.397 31.976 31.976 0 0 1-3.21-3.623 2.3 2.3 0 0 1 .19-2.988l3.718-3.85a12.164 12.164 0 0 1 3.194-10.842c4.71-4.877 12.5-5.033 17.409-.354a12.176 12.176 0 0 1 .36 17.294z"/></clipPath></defs><g><g><g><path fill="none" stroke="#0094d4" stroke-linecap="round" stroke-linejoin="round" stroke-miterlimit="50" stroke-width="1.64" d="M42.118 29.328v0l2.293 2.186c6.92 7.196 11.287 12.808 10.436 13.688-1.12 1.161-10.855-6.306-21.74-16.684-4.018-3.83-7.624-7.519-10.53-10.706-4.96-5.456-7.847-9.453-7.142-10.184.859-.888 6.8 3.313 14.442 10.007l2.059 1.962v0"/></g><g><path fill="none" stroke="#0094d4" stroke-linecap="round" stroke-linejoin="round" stroke-miterlimit="50" stroke-width="1.64" d="M37.764 39.969v0l-2.84 2.942c-1.385 1.434-3.45 1.826-4.957.96a35.017 35.017 0 0 1-6.52-4.804 35.057 35.057 0 0 1-5.668-6.833c-.921-1.45-.589-3.501.783-4.922l2.841-2.942v0"/></g><g><path fill="none" stroke="#0094d4" stroke-linecap="round" stroke-linejoin="round" stroke-miterlimit="50" stroke-width="1.64" d="M54.844 45.204v0l-2.307 2.39c-.832.862-2 1.213-2.833.83-1.67-.77-3.453-1.965-5.362-3.323-1.16-.83-2.4-1.76-3.687-2.782-3.512-2.758-7.413-6.172-11.32-9.896-3.906-3.725-7.496-7.453-10.415-10.825a91.405 91.405 0 0 1-2.953-3.55c-1.445-1.839-2.718-3.556-3.56-5.182-.42-.81-.114-1.985.718-2.846l2.307-2.39v0"/></g><g><path fill="#d7f3ff" d="M56.534 21.933c-2.89 2.994-6.94 4.207-10.77 3.62l-3.717 3.85a2.35 2.35 0 0 1-3.029.29 32.333 32.333 0 0 1-4.145-3.397 31.976 31.976 0 0 1-3.21-3.623 2.3 2.3 0 0 1 .19-2.988l3.718-3.85a12.164 12.164 0 0 1 3.194-10.842c4.71-4.877 12.5-5.033 17.409-.354a12.176 12.176 0 0 1 .36 17.294z"/><path fill="none" stroke="#fff" stroke-linecap="round" stroke-linejoin="round" stroke-miterlimit="50" stroke-width="4" d="M56.534 21.933c-2.89 2.994-6.94 4.207-10.77 3.62l-3.717 3.85a2.35 2.35 0 0 1-3.029.29 32.333 32.333 0 0 1-4.145-3.397 31.976 31.976 0 0 1-3.21-3.623 2.3 2.3 0 0 1 .19-2.988l3.718-3.85a12.164 12.164 0 0 1 3.194-10.842c4.71-4.877 12.5-5.033 17.409-.354a12.176 12.176 0 0 1 .36 17.294z" clip-path="url(&quot;#gvena&quot;)"/></g><g><path fill="none" stroke="#0094d4" stroke-linecap="round" stroke-linejoin="round" stroke-miterlimit="50" stroke-width="1.64" d="M56.534 21.933c-2.89 2.994-6.94 4.207-10.77 3.62l-3.717 3.85a2.35 2.35 0 0 1-3.029.29 32.333 32.333 0 0 1-4.145-3.397 31.976 31.976 0 0 1-3.21-3.623 2.3 2.3 0 0 1 .19-2.988l3.718-3.85a12.164 12.164 0 0 1 3.194-10.842c4.71-4.877 12.5-5.033 17.409-.354a12.176 12.176 0 0 1 .36 17.294z"/></g><g><path fill="none" stroke="#0094d4" stroke-linecap="round" stroke-linejoin="round" stroke-miterlimit="50" stroke-width="1.64" d="M35.57 15.83l5.66 5.395"/></g><g><path fill="none" stroke="#0094d4" stroke-linecap="round" stroke-linejoin="round" stroke-miterlimit="50" stroke-width="1.64" d="M35.92 41.875v0l1.243 1.185a3.693 3.693 0 0 1 1.054 3.56 18.51 18.51 0 0 1-4.664 8.394c-7.482 7.748-20.132 7.676-27.512-.434-6.068-6.67-6.443-16.888-.858-23.964a18.74 18.74 0 0 1 9.544-6.435c1.266-.367 2.633-.001 3.585.906l1.247 1.19v0"/></g><g><path fill="none" stroke="#0094d4" stroke-linecap="round" stroke-linejoin="round" stroke-miterlimit="50" stroke-width="1.64" d="M32.55 44.242v0l.637.607c.465.442.753.8.563 1.416a14.104 14.104 0 0 1-3.379 5.728c-4.137 4.285-10.318 5.446-15.568 3.428.037-.29.426-3.476-2.026-5.814l-.1-.095c-2.43-2.218-5.481-1.73-5.822-1.668a14.505 14.505 0 0 1-1.02-8.01 14.081 14.081 0 0 1 3.589-7.41c1.653-1.783 3.628-3.109 5.799-3.8.866-.28 1.445.4 2.092 1.146"/></g></g></g></svg>