<svg xmlns="http://www.w3.org/2000/svg" width="55" height="62" viewBox="0 0 55 62"><g><g><g><path fill="none" stroke="#0094d4" stroke-linecap="round" stroke-linejoin="round" stroke-miterlimit="50" stroke-width="1.64" d="M48.434 30.877l2.368-3.854c1.917-3.118 2.924-6.648 2.924-10.24v0c0-4.184-1.13-7.366-2.584-9.728C48.877 3.375 44.557 1.21 40 1.21h-.017c-.76 0-1.517.062-2.265.185l-7.124 1.17c-2.068.34-4.185.34-6.253 0l-7.125-1.17a13.957 13.957 0 0 0-2.264-.185h-.018c-4.556 0-8.876 2.165-11.14 5.845C2.34 9.417 1.21 12.6 1.21 16.783v0c0 3.592 1.008 7.122 2.924 10.24l2.933 4.772c1.394 2.269 2.26 4.79 2.503 7.393.56 6.01 2.524 11.85 5.77 17.105l1.953 3.161c.5.808 1.424 1.306 2.426 1.306 1.545 0 2.798-1.166 2.798-2.605V52.89c0-2.364.42-4.712 1.246-6.947l.777-2.104c.417-1.13 1.56-1.89 2.845-1.89 1.257 0 2.381.728 2.82 1.824l.774 1.94a20.063 20.063 0 0 1 1.44 7.451v4.992c0 1.439 1.253 2.605 2.798 2.605 1.002 0 1.927-.498 2.426-1.306l1.953-3.16c3.25-5.26 5.214-11.108 5.773-17.125.124-1.329.459-2.633.992-3.872l1.085-2.52c.282-.654.612-1.289.988-1.9z"/></g><g><path fill="none" stroke="#0094d4" stroke-linecap="round" stroke-linejoin="round" stroke-miterlimit="50" stroke-width="1.64" d="M24.34 2.56v0s3.655 2.647 8.114 3.374c4.459.728 7.832 1.461 8.194 5.581"/></g><g><path fill="#d7f3ff" d="M44.425 31l-.806 1.873a15.677 15.677 0 0 0-1.219 4.755c-.513 5.547-2.364 11.03-5.35 15.86l-1.83 2.962v-4.555c0-2.925-.552-5.798-1.647-8.534l-.774-1.943c-.886-2.215-3.047-3.648-5.502-3.648-2.487 0-4.721 1.524-5.556 3.787l-.778 2.102a22.941 22.941 0 0 0-1.427 7.963v4.828l-1.83-2.962c-2.982-4.823-4.83-10.302-5.346-15.838A19.967 19.967 0 0 0 10.52 31z"/></g></g></g></svg>