<svg xmlns="http://www.w3.org/2000/svg" width="11" height="14" viewBox="0 0 11 14"><g><g><path fill="#a9dd38" d="M9.369 14H1.63A1.623 1.623 0 0 1 0 12.385V7.32c0-.892.73-1.615 1.631-1.615h7.274V4.019c0-1.644-1.528-2.982-3.405-2.982-1.877 0-3.405 1.338-3.405 2.982a.521.521 0 0 1-.524.518.521.521 0 0 1-.523-.518C1.048 1.803 3.045 0 5.5 0s4.452 1.803 4.452 4.019v1.685c0 .035-.003.07-.01.102.618.23 1.058.82 1.058 1.513v5.066C11 13.277 10.27 14 9.369 14zm-3.073-3.889V8.556a.787.787 0 0 0-.791-.778c-.435 0-.79.35-.79.778v1.555c0 .428.355.778.79.778.435 0 .79-.35.79-.778z"/></g></g></svg>