<svg xmlns="http://www.w3.org/2000/svg" width="18" height="12" viewBox="0 0 18 12"><g><g><path fill="#000" d="M13.357 9.075a8.262 8.262 0 0 1-4.362 1.22 8.26 8.26 0 0 1-4.362-1.22c-1.341-.813-2.457-1.906-3.347-3.28C2.303 4.216 3.578 3.034 5.11 2.25a4.392 4.392 0 0 0-.612 2.26c0 1.239.44 2.298 1.32 3.18.88.88 1.939 1.32 3.177 1.32s2.297-.44 3.177-1.32c.88-.881 1.32-1.941 1.32-3.18 0-.81-.204-1.564-.612-2.26 1.532.783 2.807 1.965 3.824 3.546-.89 1.373-2.006 2.466-3.347 3.28zM6.843 2.353a2.93 2.93 0 0 1 2.148-.897c.134 0 .247.047.34.14.094.094.141.208.141.341a.464.464 0 0 1-.14.34.463.463 0 0 1-.34.141c-.575 0-1.066.204-1.473.611a2.007 2.007 0 0 0-.61 1.472.464.464 0 0 1-.141.341.463.463 0 0 1-.34.14.464.464 0 0 1-.341-.14.464.464 0 0 1-.14-.34c0-.835.298-1.551.896-2.15zm10.956 2.75a10.728 10.728 0 0 0-3.782-3.697C12.434.476 10.761.01 9 .01c-1.761 0-3.434.465-5.017 1.396A10.725 10.725 0 0 0 .2 5.103 1.39 1.39 0 0 0 0 5.796c0 .228.067.459.2.693a10.723 10.723 0 0 0 3.783 3.696c1.583.931 3.256 1.396 5.017 1.396 1.761 0 3.434-.463 5.017-1.39A10.657 10.657 0 0 0 17.8 6.488c.134-.234.201-.465.201-.693a1.39 1.39 0 0 0-.2-.693z"/></g></g></svg>