<svg xmlns="http://www.w3.org/2000/svg" width="18" height="14" viewBox="0 0 18 14"><g><g><path fill="#000" d="M17.814 3.04S18 4.657 18 6.273v1.49c0 1.584-.186 3.2-.186 3.2s-.186 1.362-.714 1.964c-.683.76-1.459.793-1.8.824-2.514.222-6.3.222-6.3.222s-4.686-.032-6.114-.19c-.403-.095-1.303-.063-1.986-.856-.528-.602-.714-1.964-.714-1.964S0 9.378 0 7.763v-1.49C0 4.657.186 3.04.186 3.04S.341 1.678.9 1.076C1.583.316 2.359.284 2.7.252 5.214.062 9 .03 9 .03s3.786.032 6.3.222c.341.032 1.117.032 1.8.824.528.602.714 1.964.714 1.964M6.828 3.8v6.877l5.886-3.359z"/></g></g></svg>