<svg xmlns="http://www.w3.org/2000/svg" width="45" height="62" viewBox="0 0 45 62"><g><g><g><path fill="none" stroke="#0094d4" stroke-linecap="round" stroke-linejoin="round" stroke-miterlimit="50" stroke-width="1.5" d="M2.329 39.432c-1.3-6.548-1.277-11.179-.988-14.26.217-2.31.643-4.385.502-7.896-.05-1.265-.08-2.902-.065-5.395.009-1.472.197-2.945.64-4.351.47-1.49 1.172-2.914 2.532-3.87 1.828-1.283 3.133-.724 8.727-2.117.58-.145 1.058-.274 1.378-.363"/></g><g><path fill="none" stroke="#0094d4" stroke-linecap="round" stroke-linejoin="round" stroke-miterlimit="50" stroke-width="1.5" d="M22.55 60.914v0-3.07 0l.011-.004v0"/></g><g><path fill="none" stroke="#0094d4" stroke-linecap="round" stroke-linejoin="round" stroke-miterlimit="50" stroke-width="1.5" d="M9.324 18.99c.049 2.393.041 6.131-.194 8.953"/></g><g><path fill="none" stroke="#0094d4" stroke-linecap="round" stroke-linejoin="round" stroke-miterlimit="50" stroke-width="1.5" d="M8.844 60.909C6.556 55.308 6.792 49.847 7.46 46.07"/></g><g><path fill="none" stroke="#0094d4" stroke-linecap="round" stroke-linejoin="round" stroke-miterlimit="50" stroke-width="1.5" d="M11.239 22.67c.64 1.673 1.043 3.661 1.117 4.615.016.172.232 3.263-.856 6.353-.127.366-.314.842-.975 2.667a399.03 399.03 0 0 0-1.688 4.746s-.143.345-.355.97a25.36 25.36 0 0 0-.432 1.41"/></g><g><path fill="none" stroke="#0094d4" stroke-linecap="round" stroke-linejoin="round" stroke-miterlimit="50" stroke-width="1.5" d="M37.647 46.027c-4.44 2.018-7.54 4.335-9.53 6.176l-5.557 5.634v0l-5.562-5.634c-1.974-1.828-5.15-4.126-9.538-6.13.09-.506.187-.983.29-1.423.101-.443.207-.85.305-1.22a61.345 61.345 0 0 0 14.505 1.603 61.354 61.354 0 0 0 14.5-1.603c.102.37.204.777.306 1.22.098.428.191.888.281 1.377z"/></g><g><path fill="#d7f3ff" d="M18.128 51.016l-.027-.025c-1.28-1.187-3.897-3.337-7.961-5.441a63.042 63.042 0 0 0 12.434 1.124A63.052 63.052 0 0 0 34.82 45.58c-3.662 1.917-6.222 3.946-7.805 5.41l-.054.052-4.401 4.462z"/></g><g><path fill="none" stroke="#0094d4" stroke-linecap="round" stroke-linejoin="round" stroke-miterlimit="50" stroke-width="1.5" d="M37.644 46.03c.677 3.776.922 9.262-1.374 14.884"/></g><g><path fill="none" stroke="#0094d4" stroke-linecap="round" stroke-linejoin="round" stroke-miterlimit="50" stroke-width="1.5" d="M33.766 22.75c-.64 1.673-.942 3.58-1.015 4.533-.02.172-.237 3.263.852 6.353.13.365.318.842.975 2.667.579 1.59 1.141 3.172 1.688 4.746 0 0 .147.345.359.97.126.374.273.846.428 1.41"/></g><g><path fill="none" stroke="#0094d4" stroke-linecap="round" stroke-linejoin="round" stroke-miterlimit="50" stroke-width="1.5" d="M42.777 39.432c1.3-6.548 1.276-11.179.987-14.26-.217-2.31-.643-4.385-.502-7.896.05-1.265.08-2.902.065-5.395-.008-1.472-.197-2.945-.64-4.351-.47-1.49-1.172-2.914-2.532-3.87-1.828-1.283-3.133-.724-8.727-2.117a53.198 53.198 0 0 1-1.378-.363"/></g><g><path fill="none" stroke="#0094d4" stroke-linecap="round" stroke-linejoin="round" stroke-miterlimit="50" stroke-width="1.5" d="M35.784 18.99c-.049 2.393-.04 6.131.195 8.953"/></g><g><path fill="none" stroke="#0094d4" stroke-linecap="round" stroke-linejoin="round" stroke-miterlimit="50" stroke-width="1.5" d="M22.552 13.354c-1.549-.928-4.725-2.476-8.745-2.109a13.567 13.567 0 0 0-3.804.911c-.553 1.658-1.32 3.975-.68 6.832.19.838.467 1.578.774 2.215.602 1.25 1.761 2.139 3.105 2.453l.386.09c.623.128 2.044.429 3.624.376.913-.031 2.339-.195 4.028-.898a4.65 4.65 0 0 1 1.312-.402c.584.088 1.04.27 1.308.402 1.698.703 3.12.867 4.032.898 1.58.052 3.001-.248 3.624-.376l.388-.09c1.345-.315 2.505-1.204 3.106-2.456.306-.636.583-1.375.771-2.212.645-2.857-.127-5.174-.68-6.832a13.567 13.567 0 0 0-3.804-.91c-4.02-.368-7.192 1.18-8.745 2.108z"/></g><g><path fill="#d7f3ff" d="M28.267 22.48c-.106 0-.213-.001-.32-.005a9.915 9.915 0 0 1-3.423-.757 6.143 6.143 0 0 0-1.73-.526l-.242-.036-.243.036a6.266 6.266 0 0 0-1.727.524 9.85 9.85 0 0 1-3.745.764c-1.23 0-2.347-.23-2.883-.34l-.384-.09c-.882-.206-1.632-.792-2.006-1.569a8.71 8.71 0 0 1-.65-1.861c-.459-2.044-.061-3.76.39-5.193.878-.29 1.749-.47 2.645-.548a11.84 11.84 0 0 1 1.07-.049c2.872 0 5.228 1.051 6.699 1.933l.833.5.833-.499c1.476-.882 3.837-1.934 6.7-1.934.355 0 .713.016 1.066.049.9.078 1.772.259 2.65.548.453 1.436.85 3.155.39 5.193a8.73 8.73 0 0 1-.648 1.86c-.373.777-1.123 1.364-2.007 1.57l-.366.086c-.582.12-1.687.344-2.902.344"/></g></g></g></svg>