<svg xmlns="http://www.w3.org/2000/svg" width="64" height="62" viewBox="0 0 64 62"><g><g><g><path fill="none" stroke="#0094d4" stroke-linecap="round" stroke-linejoin="round" stroke-miterlimit="50" stroke-width="1.5" d="M32.038 52.916v0H9.324v5.187a2.868 2.868 0 0 1-2.878 2.859H3.99A2.78 2.78 0 0 1 1.2 58.19V45.72v0h30.838v0"/></g><g><path fill="none" stroke="#0094d4" stroke-linecap="round" stroke-linejoin="round" stroke-miterlimit="50" stroke-width="1.5" d="M1.2 45.723v0-4.978c0-2.427 1.982-4.395 4.425-4.395h14.456v0h23.913v0H58.45c2.444 0 4.425 1.968 4.425 4.395v4.978"/></g><g><path fill="none" stroke="#0094d4" stroke-linecap="round" stroke-linejoin="round" stroke-miterlimit="50" stroke-width="1.5" d="M9.31 52.91v-6.93"/></g><g><path fill="none" stroke="#0094d4" stroke-linecap="round" stroke-linejoin="round" stroke-miterlimit="50" stroke-width="1.5" d="M39.42 26.222H23.438a1.992 1.992 0 0 1-1.999-1.985v-8.178c0-1.438 1.279-2.599 2.854-2.599h14.27c1.575 0 2.854 1.16 2.854 2.599v8.178a1.992 1.992 0 0 1-1.999 1.985z"/></g><g><path fill="#d7f3ff" d="M23.48 24.207v-8.14c0-.273.336-.577.818-.577h14.27c.481 0 .817.304.817.576v8.14z"/></g><g><path fill="none" stroke="#0094d4" stroke-linecap="round" stroke-linejoin="round" stroke-miterlimit="50" stroke-width="1.5" d="M32.04 45.72v0h30.838v12.47a2.78 2.78 0 0 1-2.79 2.772h-1.731a2.868 2.868 0 0 1-2.878-2.859v-5.187 0H32.04v0"/></g><g><path fill="none" stroke="#0094d4" stroke-linecap="round" stroke-linejoin="round" stroke-miterlimit="50" stroke-width="1.5" d="M55.43 52.91v-6.93"/></g><g><path fill="none" stroke="#0094d4" stroke-linecap="round" stroke-linejoin="round" stroke-miterlimit="50" stroke-width="1.5" d="M61.734 37.81v0l-6.263-15.1v0V2.672v0h-6.075v3.424C46.804 4.53 40.56 1.229 31.942 1.2c-8.339-.029-14.446 3.02-17.074 4.534V2.673v0H8.594v20.036L2.06 38.141v0"/></g><g><path fill="none" stroke="#0094d4" stroke-linecap="round" stroke-linejoin="round" stroke-miterlimit="50" stroke-width="1.5" d="M14.87 5.73v16.35"/></g><g><path fill="none" stroke="#0094d4" stroke-linecap="round" stroke-linejoin="round" stroke-miterlimit="50" stroke-width="1.5" d="M49.4 6.09v16.32"/></g><g><path fill="none" stroke="#0094d4" stroke-linecap="round" stroke-linejoin="round" stroke-miterlimit="50" stroke-width="1.5" d="M8.6 22.71h13"/></g><g><path fill="none" stroke="#0094d4" stroke-linecap="round" stroke-linejoin="round" stroke-miterlimit="50" stroke-width="1.5" d="M55.48 22.71H41.65"/></g></g></g></svg>