<svg width="20" height="25" viewBox="0 0 20 25" fill="none" xmlns="http://www.w3.org/2000/svg">
<path d="M14.5 14.5H1.49998V18.5H14.5V14.5Z" fill="white" stroke="white"/>
<path fill-rule="evenodd" clip-rule="evenodd" d="M4.97582 15.7459C4.97582 15.3394 4.69379 15.0971 4.19618 15.0971C3.99298 15.0971 3.85537 15.1171 3.78339 15.1363V16.4404C3.86861 16.4595 3.97339 16.4659 4.1178 16.4659C4.64821 16.4659 4.97582 16.198 4.97582 15.7459Z" fill="white"/>
<path d="M13.7796 0H3.94978C2.51374 0 1.34495 1.16959 1.34495 2.60482V12.237H1.09054C0.510944 12.237 0.0408936 12.7066 0.0408936 13.2867V19.6524C0.0408936 20.2324 0.510894 20.702 1.09054 20.702H1.34495V21.8692C1.34495 23.306 2.51374 24.4741 3.94978 24.4741H17.3621C18.7972 24.4741 19.9662 23.306 19.9662 21.8692V6.16492L13.7796 0ZM2.79455 14.4355C3.10216 14.3835 3.53455 14.3443 4.14374 14.3443C4.75937 14.3443 5.19815 14.4618 5.49297 14.6979C5.7746 14.9203 5.96465 15.2875 5.96465 15.7195C5.96465 16.1515 5.82064 16.5188 5.55861 16.7676C5.2178 17.0884 4.71379 17.2324 4.12419 17.2324C3.99297 17.2324 3.87536 17.2259 3.78338 17.2131V18.7916H2.79455V14.4355ZM17.3621 22.8788H3.94978C3.39374 22.8788 2.94094 22.426 2.94094 21.8692V20.702H15.444C16.0237 20.702 16.4937 20.2324 16.4937 19.6524V13.2867C16.4937 12.7066 16.0237 12.237 15.444 12.237H2.94094V2.60482C2.94094 2.04959 3.39379 1.5968 3.94978 1.5968L13.1828 1.58716V5C13.1828 5.99685 13.9916 6.80645 14.9892 6.80645L18.3325 6.79685L18.3701 21.8692C18.3701 22.426 17.9181 22.8788 17.3621 22.8788ZM6.60226 18.7716V14.4355C6.96902 14.3771 7.44704 14.3443 7.9515 14.3443C8.78988 14.3443 9.33353 14.4947 9.75952 14.8155C10.2179 15.1563 10.5059 15.6995 10.5059 16.4795C10.5059 17.3243 10.1983 17.9076 9.77226 18.2675C9.30744 18.6539 8.59988 18.8372 7.73546 18.8372C7.2178 18.8372 6.85105 18.8044 6.60226 18.7716ZM13.7508 16.2044V17.0163H12.1656V18.7916H11.1635V14.3771H13.862V15.1955H12.1656V16.2044H13.7508Z" fill="white"/>
<path d="M5.00389 18H3.35936V15.1445H5.00389V15.6406H3.96483V16.2676H4.93163V16.7637H3.96483V17.5H5.00389V18ZM7.91014 18H7.21873L6.55467 16.9199L5.89061 18H5.24217L6.18944 16.5273L5.30272 15.1445H5.97069L6.58592 16.1719L7.18944 15.1445H7.84178L6.9453 16.5605L7.91014 18ZM9.48241 15.6074C9.25454 15.6074 9.07811 15.6934 8.95311 15.8652C8.82811 16.0358 8.76561 16.2741 8.76561 16.5801C8.76561 17.2168 9.00454 17.5352 9.48241 17.5352C9.68293 17.5352 9.92577 17.485 10.2109 17.3848V17.8926C9.97655 17.9902 9.71483 18.0391 9.42577 18.0391C9.0104 18.0391 8.69269 17.9134 8.47264 17.6621C8.25259 17.4095 8.14256 17.0475 8.14256 16.5762C8.14256 16.2793 8.1966 16.0195 8.30467 15.7969C8.41275 15.5729 8.56769 15.4017 8.76952 15.2832C8.97264 15.1634 9.21027 15.1035 9.48241 15.1035C9.75975 15.1035 10.0384 15.1706 10.3183 15.3047L10.123 15.7969C10.0163 15.7461 9.90884 15.7018 9.80077 15.6641C9.69269 15.6263 9.58657 15.6074 9.48241 15.6074ZM12.4648 18H10.8203V15.1445H12.4648V15.6406H11.4258V16.2676H12.3926V16.7637H11.4258V17.5H12.4648V18ZM13.0625 18V15.1445H13.668V17.5H14.8262V18H13.0625Z" fill="#0A9BEB"/>
</svg>
