<svg xmlns="http://www.w3.org/2000/svg" width="24" height="24" viewBox="0 0 24 24"><g><g><path fill="#0a9beb" d="M24 21.333V2.667A2.679 2.679 0 0 0 21.327 0H2.673C1.14 0 0 1.137 0 2.667v18.666C0 22.864 1.14 24 2.673 24h18.654A2.678 2.678 0 0 0 24 21.333z"/></g><g><g><path fill="#fff" d="M12 5c1.901 0 2.14.007 2.886.042.745.034 1.253.152 1.699.326a3.4 3.4 0 0 1 1.24.807c.39.389.629.78.808 1.24.173.445.29.954.325 1.7.033.746.042.984.042 2.885 0 1.901-.007 2.14-.042 2.886-.034.745-.152 1.253-.325 1.699a3.4 3.4 0 0 1-.808 1.24c-.389.39-.78.629-1.24.807-.445.174-.954.291-1.7.326-.746.033-.984.042-2.885.042-1.901 0-2.14-.007-2.886-.042-.745-.034-1.253-.152-1.699-.326a3.4 3.4 0 0 1-1.24-.807 3.42 3.42 0 0 1-.807-1.24c-.174-.445-.291-.954-.326-1.7C5.009 14.14 5 13.902 5 12c0-1.901.007-2.14.042-2.886.034-.745.152-1.253.326-1.699a3.4 3.4 0 0 1 .807-1.24c.389-.39.78-.629 1.24-.808.446-.173.954-.29 1.7-.325C9.86 5.009 10.098 5 12 5zm-.005 1.167c-1.897 0-2.123.009-2.872.042-.693.032-1.07.148-1.32.246a2.196 2.196 0 0 0-.817.53 2.196 2.196 0 0 0-.531.818c-.098.25-.214.627-.246 1.32-.033.749-.042.975-.042 2.872 0 1.898.009 2.124.041 2.872.032.693.148 1.07.246 1.32.129.332.282.568.531.817.249.249.485.403.817.531.251.098.627.214 1.32.246.749.033.975.042 2.873.042 1.897 0 2.122-.008 2.872-.041.693-.032 1.07-.148 1.32-.246.332-.128.568-.282.817-.531.249-.249.403-.485.531-.817.098-.251.214-.627.246-1.32.033-.749.042-.975.042-2.873 0-1.897-.008-2.122-.041-2.872-.032-.693-.148-1.07-.246-1.32a2.196 2.196 0 0 0-.531-.817 2.196 2.196 0 0 0-.817-.531c-.251-.098-.627-.214-1.32-.246-.749-.033-.975-.042-2.873-.042z"/></g><g><path fill="#fff" d="M12 8.5a3.5 3.5 0 1 1 0 7 3.5 3.5 0 0 1 0-7zm-.005 5.824a2.328 2.328 0 1 0 0-4.657 2.328 2.328 0 0 0 0 4.657z"/></g><g><path fill="#fff" d="M16.67 8.205a.875.875 0 1 1-1.75 0 .875.875 0 0 1 1.75 0z"/></g></g></g></svg>