<svg xmlns="http://www.w3.org/2000/svg" width="18" height="26" viewBox="0 0 18 26"><g><g><g><path fill="#fff" d="M0 0h17.997v25.472H0zm.997 24.442h15.996V1.028H.997z"/></g><g><path fill="#fff" d="M6.802 21.088c0 .167-.052.309-.14.427a.41.41 0 0 1-.334.172v-.207c.083 0 .165-.04.219-.108a.497.497 0 0 0 .09-.284.46.46 0 0 0-.09-.277.26.26 0 0 0-.22-.115v-.206c.137 0 .247.06.335.178.088.113.14.255.14.42zm.83.57h-.164l-.409-.78v.78h-.153v-1.14h.153l.409.77v-.77h.164zm1.527-.813H8.97a.329.329 0 0 0-.085-.101.232.232 0 0 0-.133-.048.282.282 0 0 0-.227.115.516.516 0 0 0-.084.277c0 .111.036.2.084.284a.311.311 0 0 0 .231.108c.04 0 .078-.01.105-.033.046-.024.07-.056.11-.097h.188A.615.615 0 0 1 9 21.59a.385.385 0 0 1-.25.096.405.405 0 0 1-.36-.203.671.671 0 0 1-.12-.396c0-.146.04-.277.12-.397a.41.41 0 0 1 .36-.201c.092 0 .173.034.25.094a.5.5 0 0 1 .158.261zm.53.814H9.25v-1.14h.17v.932h.268zm.065-1.14h.163v1.14h-.163zm1.074 1.14h-.164l-.4-.78v.78h-.174v-1.14h.174l.4.769v-.77h.164zm.12-1.14h.169v1.14h-.17zm1.187.326h-.193a.245.245 0 0 0-.085-.101.288.288 0 0 0-.143-.048.24.24 0 0 0-.214.115.447.447 0 0 0-.088.277c0 .111.034.2.088.284.062.068.124.108.22.108.04 0 .08-.01.122-.033a.314.314 0 0 0 .096-.097h.19a.506.506 0 0 1-.16.241.383.383 0 0 1-.254.096.388.388 0 0 1-.347-.203.631.631 0 0 1-.127-.396.7.7 0 0 1 .119-.397.41.41 0 0 1 .355-.201c.097 0 .182.034.255.094a.559.559 0 0 1 .166.261zm-5.809.635a.282.282 0 0 1-.219-.108.46.46 0 0 1-.09-.284c0-.109.029-.2.09-.277a.26.26 0 0 1 .22-.115v-.206c-.132 0-.249.06-.341.178a.665.665 0 0 0-.136.42c0 .167.047.309.136.427.092.111.21.172.342.172v-.207z"/></g><g><path fill="#fff" d="M13.628 23.417v-.003l.006.003zm-.618 0h-.205l-.102-.188-.133-.239-.007.427h-.16v-1.148h.265c.01 0 .025 0 .035.01.111.005.194.047.247.134a.461.461 0 0 1-.015.461.21.21 0 0 1-.174.116l.249.424zm-.24-.62c.044-.027.066-.081.066-.154 0-.071-.022-.115-.066-.145-.02-.01-.043-.012-.067-.021-.01-.007-.015-.007-.032-.007h-.108v.346h.108c.017 0 .022-.003.032-.003.024-.007.046-.007.067-.017zm-4.845.324v-.202h.093l-.093-.343v-.307h.061l.372 1.148h-.183l-.087-.296zm.923.296h-.422v-1.148h.163v.944h.26zm1.325-.82c-.033-.037-.065-.077-.092-.1a.248.248 0 0 0-.143-.045c-.088 0-.157.046-.213.117a.454.454 0 0 0-.084.274c0 .111.028.203.087.278.053.077.13.116.21.116.048 0 .09-.011.121-.034a.231.231 0 0 0 .102-.092h.192a.618.618 0 0 1-.163.242.367.367 0 0 1-.252.088c-.14 0-.253-.06-.347-.194a.782.782 0 0 1-.125-.404c0-.14.052-.28.125-.391.094-.138.206-.202.347-.202.096 0 .183.034.252.095a.504.504 0 0 1 .165.252zm.732.82h-.479v-1.148h.48v.201h-.314v.272h.304v.202h-.304v.269h.313zm.846 0h-.166l-.397-.774v.774h-.176v-1.148h.176l.397.777v-.777h.166zm.584-.947h-.169v.947h-.169v-.947h-.168v-.201h.506zm1.244.947h-.473v-1.148h.473v.201h-.305v.272h.287v.202h-.287v.269h.305zm-5.654-1.148v.307l-.102.343h.102v.202h-.172l-.09.296h-.181l.376-1.148zm-1.984.9c.077-.057.129-.173.129-.318 0-.153-.052-.272-.13-.32-.026-.017-.046-.031-.071-.031v-.215a.43.43 0 0 1 .19.08c.06.063.104.135.142.235.018.075.034.167.034.251a.893.893 0 0 1-.022.213.559.559 0 0 1-.133.24.4.4 0 0 1-.211.112v-.21c.03-.006.045-.02.072-.037zm.38-.9h.174v1.148H6.32zm.954.328a.356.356 0 0 0-.082-.1.277.277 0 0 0-.136-.045c-.097 0-.162.046-.222.117a.415.415 0 0 0-.087.274.41.41 0 0 0 .087.278c.06.077.125.116.222.116.033 0 .077-.011.113-.034a.236.236 0 0 0 .096-.092h.198a.709.709 0 0 1-.16.242.394.394 0 0 1-.255.088.409.409 0 0 1-.356-.194.727.727 0 0 1-.117-.404c0-.14.04-.28.117-.391a.411.411 0 0 1 .356-.202c.09 0 .182.034.255.095a.687.687 0 0 1 .171.252zm-2.52.82h-.168v-.857l-.232.857h-.131l-.238-.857v.857H3.82v-1.148h.231l.24.875.237-.875h.227zm1.114-.92c-.042-.01-.078-.027-.128-.027h-.08v.742h.085c.045 0 .081-.011.123-.014v.208a.547.547 0 0 1-.12.01h-.251V22.27h.248c.045 0 .081.01.123.015zm-.476.92h-.48v-1.148h.48v.201h-.321v.272h.315v.202h-.315v.269h.32z"/></g><g><path fill="#fff" d="M3.78 22.024h10.45v-.184H3.78z"/></g><g><path fill="#fff" d="M5.485 19.567v-6.48l-.918.799-.337-.207L6.954 11.3l.34.216-.653.568v.557c.872-.61 1.775-.923 2.706-.923 1.022 0 1.814.312 2.359.92.246.28.408.606.496.967.047.32.077.744.077 1.273v3.855c0 .26.052.456.151.574.105.126.26.198.467.223a8 8 0 0 0 .885.037v.328H9.94v-.328h1.177v-4.739c0-.81-.111-1.399-.332-1.741-.138-.269-.38-.473-.74-.663-.32-.17-.71-.25-1.149-.25-.69 0-1.236.23-1.655.678-.395.476-.6.977-.6 1.491v4.39c0 .262.06.456.16.574.104.126.26.198.462.223.244.028.546.037.893.037v.328H4.306v-.328z"/></g><g><path fill="#fff" d="M12.896 6.652c0 2.364-1.86 4.28-4.146 4.28-2.291 0-4.15-1.916-4.15-4.28 0-2.366 1.859-4.282 4.15-4.282 2.286 0 4.146 1.916 4.146 4.282M8.75 3.214c-1.84 0-3.33 1.541-3.33 3.443 0 1.902 1.49 3.44 3.33 3.44 1.836 0 3.325-1.538 3.325-3.44s-1.49-3.443-3.325-3.443"/></g></g></g></svg>