<svg xmlns="http://www.w3.org/2000/svg" width="33" height="42" viewBox="0 0 33 42"><g><g><g><path fill="#fff" d="M23.244 0H1.477C.871 0 .38.491.38 1.444V41.25c0 .259.491.75 1.097.75h30.056c.606 0 1.097-.491 1.097-.75V9.733c0-.522-.07-.69-.193-.813L23.71.193A.663.663 0 0 0 23.244 0z"/></g><g><path fill="#efeee7" d="M23.63.11v8.887h8.887z"/></g><g><path fill="#91cda0" d="M31.533 42H1.477A1.097 1.097 0 0 1 .38 40.903V29.25h32.25v11.653c0 .606-.491 1.097-1.097 1.097z"/></g><g><g><path fill="#fff" d="M10.78 36.077l1.918 3.67h-1.425l-1.2-2.85H9.97l-1.292 2.85H7.253l1.918-3.67L7.13 32.19h1.405l1.332 3.077h.103l1.446-3.077h1.405z"/></g><g><path fill="#fff" d="M15.781 32.19v6.624h3.476v.933H14.53V32.19z"/></g><g><path fill="#fff" d="M24.779 37.678c0 .274-.056.539-.17.796a2.09 2.09 0 0 1-.476.676c-.204.195-.458.35-.759.467-.3.116-.642.174-1.025.174-.164 0-.333-.01-.508-.026a4.12 4.12 0 0 1-.528-.087 2.764 2.764 0 0 1-.507-.17c-.161-.072-.3-.159-.416-.261l.215-.882c.095.054.217.108.364.159.147.05.298.099.456.143a4.6 4.6 0 0 0 .472.108c.156.027.303.041.44.041.418 0 .737-.097.96-.292.221-.195.332-.484.332-.867a.83.83 0 0 0-.235-.594 2.554 2.554 0 0 0-.59-.447c-.235-.133-.49-.266-.764-.4a4.63 4.63 0 0 1-.769-.471 2.46 2.46 0 0 1-.595-.64c-.157-.246-.235-.554-.235-.923 0-.335.061-.632.184-.892s.29-.48.498-.661a2.2 2.2 0 0 1 .728-.416c.277-.096.57-.143.877-.143.314 0 .632.03.953.087.321.058.58.152.78.282-.042.088-.09.186-.144.292l-.154.297c-.048.093-.089.17-.123.231a.948.948 0 0 1-.061.103 1.239 1.239 0 0 1-.139-.082 1.061 1.061 0 0 0-.22-.102 1.573 1.573 0 0 0-.38-.072 3.586 3.586 0 0 0-.605.01 1.06 1.06 0 0 0-.39.118 1.35 1.35 0 0 0-.329.24 1.098 1.098 0 0 0-.226.324.825.825 0 0 0-.081.343c0 .273.078.494.235.662.157.168.352.314.584.441.233.127.486.25.76.369.272.12.527.265.764.436.236.17.432.384.59.64.158.257.237.586.237.99z"/></g></g><g><path fill="#e1dcda" d="M13.13 15v-1.5h14.25V15zm14.25 3H13.13v-1.5h14.25zm0 3H13.13v-1.5h14.25zm0 3H13.13v-1.5h14.25zm-15.75 0h-6v-1.5h6zm-6-4.5h6V21h-6zm0-3h6V18h-6zm0-3h6V15h-6zm0-3h6V12h-6zm7.5 1.5V9h-9v16.5h24.75V12z"/></g></g></g></svg>