<svg xmlns="http://www.w3.org/2000/svg" width="14" height="14" viewBox="0 0 14 14"><g><g><path fill="#fff" d="M5.855 1.475c2.386 0 4.327 1.874 4.327 4.177 0 2.304-1.941 4.178-4.327 4.178S1.527 7.956 1.527 5.652c0-2.303 1.942-4.177 4.328-4.177zm7.932 11.277l-3.451-3.466a5.519 5.519 0 0 0 1.373-3.634C11.71 2.536 9.083 0 5.855 0 2.626 0 0 2.536 0 5.652c0 3.117 2.626 5.653 5.855 5.653a5.936 5.936 0 0 0 3.354-1.023l3.477 3.492c.146.146.341.226.55.226a.774.774 0 0 0 .53-.206.72.72 0 0 0 .021-1.042z"/></g></g></svg>