<svg xmlns="http://www.w3.org/2000/svg" width="56" height="62" viewBox="0 0 56 62"><g><g><g><path fill="#d7f3ff" d="M4.32 51.834v-41.49c0-3.316 2.673-6.004 5.97-6.004h35.377c3.297 0 5.97 2.688 5.97 6.004v41.49c0 3.315-2.673 6.004-5.97 6.004H10.29c-3.297 0-5.97-2.689-5.97-6.004"/></g><g><path fill="none" stroke="#0094d4" stroke-linecap="round" stroke-linejoin="round" stroke-miterlimit="50" stroke-width="1.5" d="M44.41 60.95H11.545c-5.702 0-10.325-4.648-10.325-10.383V11.603C1.22 5.868 5.843 1.22 11.545 1.22H44.41c5.702 0 10.325 4.648 10.325 10.383v38.964c0 5.735-4.623 10.384-10.325 10.384z"/></g><g><path fill="none" stroke="#0094d4" stroke-linecap="round" stroke-linejoin="round" stroke-miterlimit="50" stroke-width="1.5" d="M14.902 15.19a6.27 6.27 0 0 0-.87.986c-.45.635-.885 1.322-1.064 2.09-.397 1.708 1.328 2.792 2.65 3.37 2.316 1.014 4.788 1.114 7.259.996l.178-.009"/></g><g><path fill="none" stroke="#0094d4" stroke-linecap="round" stroke-linejoin="round" stroke-miterlimit="50" stroke-width="1.5" d="M25.538 17.415a28.576 28.576 0 0 1-6.61-.863c-1.483-.377-2.782-.849-4.028-1.362"/></g><g><path fill="none" stroke="#0094d4" stroke-linecap="round" stroke-linejoin="round" stroke-miterlimit="50" stroke-width="1.5" d="M26.274 54.343v0s-.734-39.025-.734-40.078c0-.494.496-.819.95-.631.399.16.9.286 1.483.264"/></g><g><path fill="none" stroke="#0094d4" stroke-linecap="round" stroke-linejoin="round" stroke-miterlimit="50" stroke-width="1.5" d="M12.29 53.839a.089.089 0 0 1 .014.006c1.413.321 2.538.162 2.538.162 1.017-.115 1.83-.429 2.488-.886 2.155-1.496 1.962-4.572 2.4-6.874.353-1.844 1.457-5.283 3.602-5.927h1.098v0"/></g><g><path fill="none" stroke="#0094d4" stroke-linecap="round" stroke-linejoin="round" stroke-miterlimit="50" stroke-width="1.5" d="M12.968 19.23c-.407.277-.959.74-1.427 1.449-.69 1.045-1.136 2.544-.835 3.71.944 3.673 9.252 3.95 9.612 3.959a17.794 17.794 0 0 0 2.924-.171"/></g><g><path fill="none" stroke="#0094d4" stroke-linecap="round" stroke-linejoin="round" stroke-miterlimit="50" stroke-width="1.5" d="M10.56 24.19v.003c-.581.557-1.465 1.58-1.906 3.099-.223.765-.714 2.454.14 3.783.47.733 1.168 1.072 1.717 1.307 4.043 1.734 8.6 1.574 8.826 1.565a27.862 27.862 0 0 0 3.855-.44"/></g><g><path fill="none" stroke="#0094d4" stroke-linecap="round" stroke-linejoin="round" stroke-miterlimit="50" stroke-width="1.5" d="M19.156 39.716a43.146 43.146 0 0 1-3.019-.14c-3.228-.263-4.528-.657-5.061-.84-1.335-.46-2.296-.808-2.88-1.775-.481-.8-.472-1.635-.464-2.335.017-1.479.529-2.646.929-3.356"/></g><g><path fill="none" stroke="#0094d4" stroke-linecap="round" stroke-linejoin="round" stroke-miterlimit="50" stroke-width="1.5" d="M26.599 11.922v0-.004c0-.825-.351-1.563-.88-1.845l-1.04-.557c-.233-.125-.389-.45-.389-.816 0-.523.312-.928.665-.863l2.498.455c.348.063.7.063 1.047 0l2.496-.455c.354-.065.665.34.665.863 0 .365-.155.691-.39.817l-1.038.556c-.528.282-.88 1.02-.88 1.845"/></g><g><path fill="none" stroke="#0094d4" stroke-linecap="round" stroke-linejoin="round" stroke-miterlimit="50" stroke-width="1.5" d="M9.729 46.141c-.494 3.515 1.497 4.659 1.497 4.659 1.439.527 3.169.88 4.307.035 1.505-1.118.532-3.246 1.76-7.145.386-1.224 1.204-3.822 3.344-5.615.626-.525 1.374-.898 2.183-.998a3.25 3.25 0 0 1 .597-.022h1.015v0"/></g><g><path fill="none" stroke="#0094d4" stroke-linecap="round" stroke-linejoin="round" stroke-miterlimit="50" stroke-width="1.5" d="M17.294 43.688v0s-4.257.77-8.21-1.681c0 0-1.344-.668-.79-4.537"/></g><g><path fill="none" stroke="#0094d4" stroke-linecap="round" stroke-linejoin="round" stroke-miterlimit="50" stroke-width="1.5" d="M16.582 47.552v0s-4.625.762-6.854-1.409c0 0-1.499-.84-.645-4.133"/></g><g><path fill="none" stroke="#0094d4" stroke-linecap="round" stroke-linejoin="round" stroke-miterlimit="50" stroke-width="1.5" d="M12.305 53.845s-1.603-.628-1.08-3.045"/></g><g><path fill="none" stroke="#0094d4" stroke-linecap="round" stroke-linejoin="round" stroke-miterlimit="50" stroke-width="1.5" d="M32.68 22.612c2.602.145 5.214.092 7.653-.975 1.322-.579 3.047-1.663 2.65-3.37-.178-.77-.614-1.456-1.064-2.09a6.287 6.287 0 0 0-.87-.987"/></g><g><path fill="none" stroke="#0094d4" stroke-linecap="round" stroke-linejoin="round" stroke-miterlimit="50" stroke-width="1.5" d="M30.41 17.415c1.55-.025 3.885-.17 6.61-.863 1.483-.377 2.781-.849 4.028-1.362"/></g><g><path fill="none" stroke="#0094d4" stroke-linecap="round" stroke-linejoin="round" stroke-miterlimit="50" stroke-width="1.5" d="M27.98 13.897a3.6 3.6 0 0 0 1.482-.263.683.683 0 0 1 .95.63c0 1.054-.787 40.078-.787 40.078v0"/></g><g><path fill="none" stroke="#0094d4" stroke-linecap="round" stroke-linejoin="round" stroke-miterlimit="50" stroke-width="1.5" d="M43.66 53.839c-.008.002-.014.006-.014.006-1.413.321-2.538.162-2.538.162-1.017-.115-1.83-.429-2.488-.886-1.535-1.066-1.845-2.973-2.079-4.702-.284-2.095-.588-4.097-1.78-5.888-.608-.91-1.37-1.854-2.44-2.211H31.29v0"/></g><g><path fill="none" stroke="#0094d4" stroke-linecap="round" stroke-linejoin="round" stroke-miterlimit="50" stroke-width="1.5" d="M33.29 28.249c.717.078 1.504.12 2.349.098.36-.008 8.667-.285 9.612-3.959.3-1.165-.145-2.664-.836-3.71a5.28 5.28 0 0 0-1.426-1.448"/></g><g><path fill="none" stroke="#0094d4" stroke-linecap="round" stroke-linejoin="round" stroke-miterlimit="50" stroke-width="1.5" d="M33.56 33.644c1.178.183 2.21.266 3.051.303.226.01 4.782.17 8.826-1.565.548-.235 1.247-.573 1.718-1.307.853-1.329.362-3.017.14-3.783-.443-1.519-1.326-2.541-1.908-3.099v-.003 0"/></g><g><path fill="none" stroke="#0094d4" stroke-linecap="round" stroke-linejoin="round" stroke-miterlimit="50" stroke-width="1.5" d="M36.8 39.716c.703-.008 1.75-.037 3.018-.14 3.229-.263 4.529-.657 5.062-.84 1.335-.46 2.296-.808 2.879-1.775.482-.8.472-1.635.464-2.335-.017-1.479-.528-2.646-.928-3.356"/></g><g><path fill="none" stroke="#0094d4" stroke-linecap="round" stroke-linejoin="round" stroke-miterlimit="50" stroke-width="1.5" d="M46.223 46.134c.494 3.515-1.497 4.659-1.497 4.659-1.439.527-3.169.88-4.307.034-1.505-1.117-.532-3.245-1.76-7.144-.338-1.07-1.006-3.191-2.598-4.906-.977-1.051-2.29-1.753-3.718-1.862a4.65 4.65 0 0 0-.476-.014h-.577v0"/></g><g><path fill="none" stroke="#0094d4" stroke-linecap="round" stroke-linejoin="round" stroke-miterlimit="50" stroke-width="1.5" d="M38.66 43.688v0s4.257.77 8.21-1.681c0 0 1.343-.668.79-4.537"/></g><g><path fill="none" stroke="#0094d4" stroke-linecap="round" stroke-linejoin="round" stroke-miterlimit="50" stroke-width="1.5" d="M39.37 47.552v0s4.626.762 6.855-1.409c0 0 1.498-.84.644-4.133"/></g><g><path fill="none" stroke="#0094d4" stroke-linecap="round" stroke-linejoin="round" stroke-miterlimit="50" stroke-width="1.5" d="M43.65 53.845s1.603-.628 1.08-3.045"/></g><g><path fill="none" stroke="#0094d4" stroke-linecap="round" stroke-linejoin="round" stroke-miterlimit="50" stroke-width="1.5" d="M25.64 20.01s.41 1.443 2.335 1.398"/></g><g><path fill="none" stroke="#0094d4" stroke-linecap="round" stroke-linejoin="round" stroke-miterlimit="50" stroke-width="1.5" d="M30.305 20.01s-.41 1.443-2.335 1.398"/></g><g><path fill="none" stroke="#0094d4" stroke-linecap="round" stroke-linejoin="round" stroke-miterlimit="50" stroke-width="1.5" d="M25.75 26.11c.351.332.92.642 1.828.621h.791c.894.021 1.46-.278 1.812-.607"/></g><g><path fill="none" stroke="#0094d4" stroke-linecap="round" stroke-linejoin="round" stroke-miterlimit="50" stroke-width="1.5" d="M25.85 31.53c.354.297.902.55 1.728.532h.792c.808.019 1.35-.224 1.705-.516"/></g><g><path fill="none" stroke="#0094d4" stroke-linecap="round" stroke-linejoin="round" stroke-miterlimit="50" stroke-width="1.5" d="M25.95 36.93c.357.262.875.473 1.627.453h.791c.73.016 1.243-.178 1.597-.432"/></g><g><path fill="none" stroke="#0094d4" stroke-linecap="round" stroke-linejoin="round" stroke-miterlimit="50" stroke-width="1.5" d="M26.05 42.32c.351.232.845.402 1.527.386h.792c.66.016 1.14-.143 1.49-.362"/></g><g><path fill="none" stroke="#0094d4" stroke-linecap="round" stroke-linejoin="round" stroke-miterlimit="50" stroke-width="1.5" d="M26.15 47.71c.341.2.805.337 1.425.324h.792c.596.013 1.044-.113 1.382-.3"/></g></g></g></svg>