<svg xmlns="http://www.w3.org/2000/svg" width="14" height="18" viewBox="0 0 14 18"><g><g><g><path fill="#0a9beb" d="M6.998 15.37c-.43 0-.778.336-.778.75s.348.75.778.75c.43 0 .778-.336.778-.75s-.349-.75-.778-.75z"/></g><g><path fill="#0a9beb" d="M13.222 16.125c0 .62-.523 1.125-1.166 1.125H1.944c-.643 0-1.166-.505-1.166-1.125V1.875C.778 1.255 1.3.75 1.944.75h10.112c.643 0 1.166.505 1.166 1.125v14.25zM12.056 0H1.944C.873 0 0 .842 0 1.875v14.25C0 17.159.873 18 1.944 18h10.112C13.127 18 14 17.158 14 16.125V1.875C14 .842 13.127 0 12.056 0z"/></g><g><path fill="#0a9beb" d="M11.671 14.25H2.338v-12h9.333zM12.06 1.5H1.949a.382.382 0 0 0-.389.375v12.75c0 .207.174.375.389.375H12.06a.382.382 0 0 0 .389-.375V1.875a.382.382 0 0 0-.389-.375z"/></g></g></g></svg>