<svg xmlns="http://www.w3.org/2000/svg" width="21" height="18" viewBox="0 0 21 18"><g><g><g><path fill="#0a9beb" d="M20.135 13.937a.443.443 0 0 1-.438.448H1.313a.443.443 0 0 1-.438-.448V1.376c0-.248.196-.449.438-.449h18.384c.242 0 .438.201.438.449zm-8.76 2.243h-1.75v-.898h1.75zM19.688.03H1.313C.589.03 0 .634 0 1.376v12.56c0 .743.589 1.346 1.313 1.346H8.75v.967l-4.884.834a.448.448 0 0 0-.36.516.441.441 0 0 0 .503.369l5.213-.891h2.555l5.213.89a.438.438 0 0 0 .503-.369.447.447 0 0 0-.36-.515l-4.883-.834v-.967h7.438c.723 0 1.312-.603 1.312-1.345V1.376C21 .634 20.411.03 19.687.03z"/></g></g></g></svg>