<svg xmlns="http://www.w3.org/2000/svg" width="70" height="24" viewBox="0 0 70 24"><g><g><g><path fill="#0a9beb" d="M18.912 14.136s1.51 1.488 1.881 2.178c.011.014.015.028.019.033.15.253.19.453.113.6-.125.243-.552.366-.697.376h-2.665c-.187 0-.574-.048-1.043-.371-.36-.25-.716-.665-1.063-1.069-.517-.6-.965-1.119-1.416-1.119a.511.511 0 0 0-.168.028c-.342.11-.777.596-.777 1.895 0 .406-.32.638-.547.638h-1.221c-.416 0-2.583-.146-4.501-2.169-2.355-2.478-4.47-7.448-4.488-7.492-.134-.32.142-.495.442-.495h2.694c.361 0 .477.218.56.414.093.223.445 1.12 1.021 2.13.937 1.643 1.515 2.311 1.975 2.311a.505.505 0 0 0 .245-.065c.601-.332.49-2.474.463-2.916 0-.084-.002-.958-.308-1.377-.222-.304-.596-.42-.823-.464a.984.984 0 0 1 .355-.3c.412-.206 1.154-.235 1.893-.235h.41c.802.01 1.01.062 1.3.136.585.14.597.519.545 1.811-.015.368-.031.785-.031 1.274 0 .105-.004.22-.004.34-.019.661-.04 1.409.427 1.715.061.037.129.059.201.059.163 0 .65 0 1.968-2.26a16.637 16.637 0 0 0 1.057-2.264c.027-.048.106-.19.198-.244a.463.463 0 0 1 .221-.052h3.167c.346 0 .581.052.625.184.076.212-.015.858-1.461 2.81-.246.324-.458.607-.644.853-1.312 1.716-1.312 1.804.077 3.107zM70 21.333V2.667A2.679 2.679 0 0 0 67.327 0H2.673C1.14 0 0 1.137 0 2.667v18.666C0 22.864 1.14 24 2.673 24h64.654A2.678 2.678 0 0 0 70 21.333z"/></g></g></g></svg>