<svg xmlns="http://www.w3.org/2000/svg" width="47" height="62" viewBox="0 0 47 62"><g><g><g><path fill="none" stroke="#0094d4" stroke-linecap="round" stroke-linejoin="round" stroke-miterlimit="50" stroke-width="1.5" d="M31.925 9.187a5.949 5.949 0 0 0-3.419-1.077 5.999 5.999 0 0 0-3.038.828c-1.788 1.056-2.948 3.106-2.948 5.176a6.01 6.01 0 0 0 4.367 5.777"/></g><g><path fill="none" stroke="#0094d4" stroke-linecap="round" stroke-linejoin="round" stroke-miterlimit="50" stroke-width="1.5" d="M32.012 14.121c0 .422-.074.832-.214 1.209l-.008.024v0l-.009.021c-.062.17-.14.335-.23.488l-.013.025a3.515 3.515 0 0 1-3.039 1.75 3.516 3.516 0 0 1-3.509-3.517c0-.6.149-1.162.413-1.659h.004a3.497 3.497 0 0 1 3.092-1.862 3.517 3.517 0 0 1 3.513 3.521z"/></g><g><path fill="none" stroke="#0094d4" stroke-linecap="round" stroke-linejoin="round" stroke-miterlimit="50" stroke-width="1.5" d="M35.94 43.393c-9.709-.013-19.411-.013-29.12-.013"/></g><g><path fill="none" stroke="#0094d4" stroke-linecap="round" stroke-linejoin="round" stroke-miterlimit="50" stroke-width="1.5" d="M45.651 6.012l-6.01 12.708v0l-7.721-3.634v0L37.943 2.35a1.99 1.99 0 0 1 2.65-.948l4.113 1.958a1.99 1.99 0 0 1 .945 2.652z"/></g><g><path fill="#d7f3ff" d="M42.034 3.915l-5.474 11.52-2.44-1.146L39.433 3.05a.349.349 0 0 1 .45-.161z"/></g><g><path fill="none" stroke="#0094d4" stroke-linecap="round" stroke-linejoin="round" stroke-miterlimit="50" stroke-width="1.5" d="M38.834 18.333c.445.21.636.742.425 1.188L33.63 31.417a1.99 1.99 0 0 1-2.65.947l-4.112-1.953a1.997 1.997 0 0 1-.945-2.657l5.618-11.871v0l.013-.025c.09-.153.17-.319.231-.488l.008-.021v0l.008-.025v0l.12-.244v0z"/></g><g><path fill="#d7f3ff" d="M35.14 18.426l-5.462 11.491-2.106-.997a.345.345 0 0 1-.16-.451l5.296-11.189z"/></g><g><path fill="none" stroke="#0094d4" stroke-linecap="round" stroke-linejoin="round" stroke-miterlimit="50" stroke-width="1.5" d="M22.889 12.092c-.495-.041-1-.062-1.507-.062-10.515 0-19.032 8.537-19.032 19.076 0 4.68 1.676 8.963 4.467 12.277 3.493 4.163 8.72 6.799 14.565 6.799 5.838 0 11.06-2.636 14.549-6.79"/></g><g><path fill="none" stroke="#0094d4" stroke-linecap="round" stroke-linejoin="round" stroke-miterlimit="50" stroke-width="1.5" d="M15.3 41.181v0-1.102c0-.458.37-.829.827-.829h16.735c.456 0 .826.371.826.829v1.102"/></g><g><path fill="none" stroke="#0094d4" stroke-linecap="round" stroke-linejoin="round" stroke-miterlimit="50" stroke-width="1.5" d="M18 54.622V49.95"/></g><g><path fill="none" stroke="#0094d4" stroke-linecap="round" stroke-linejoin="round" stroke-miterlimit="50" stroke-width="1.5" d="M24 54.618V49.95"/></g><g><path fill="none" stroke="#0094d4" stroke-linecap="round" stroke-linejoin="round" stroke-miterlimit="50" stroke-width="1.5" d="M10.98 43.124c-6.358-6.21-6.606-17.147-.137-23.379 3.158-3.045 7.51-4.543 11.824-4.287"/></g><g><path fill="none" stroke="#0094d4" stroke-linecap="round" stroke-linejoin="round" stroke-miterlimit="50" stroke-width="1.5" d="M26.712 30.33v0l-.919 3.945a.891.891 0 0 0 .483 1.006l1.1.525c.369.177.81.078 1.07-.24l2.593-3.175v0"/></g><g><path fill="none" stroke="#0094d4" stroke-linecap="round" stroke-linejoin="round" stroke-miterlimit="50" stroke-width="1.5" d="M42.04 60.81v0H1.21v0-2.068a4.117 4.117 0 0 1 4.113-4.122h32.605a4.117 4.117 0 0 1 4.112 4.122z"/></g><g><path fill="none" stroke="#0094d4" stroke-linecap="round" stroke-linejoin="round" stroke-miterlimit="50" stroke-width="1.5" d="M1.34 57h12.255"/></g><g><path fill="none" stroke="#0094d4" stroke-linecap="round" stroke-linejoin="round" stroke-miterlimit="50" stroke-width="1.5" d="M41.942 57H35.93"/></g></g></g></svg>